HIERARCHY
ROOT Hips
{
	OFFSET 0.000000 0.000000 0.000000
	CHANNELS 6 Xposition Yposition Zposition Xrotation Yrotation Zrotation
	JOINT LeftUpLeg_virtual
	{
		OFFSET 0.000000 0.000000 0.000000
		CHANNELS 3 Xrotation Yrotation Zrotation
		JOINT LeftUpLeg
		{
			OFFSET 13.026900 -6.336304 -1.092800
			CHANNELS 3 Xrotation Yrotation Zrotation
			JOINT LeftLeg
			{
				OFFSET 0.524474 -46.096886 9.782700
				CHANNELS 3 Xrotation Yrotation Zrotation
				JOINT LeftFoot
				{
					OFFSET -0.524474 -53.427422 -12.948200
					CHANNELS 3 Xrotation Yrotation Zrotation
					JOINT LeftToeBase
					{
						OFFSET 0.192200 -14.009700 16.364100
						CHANNELS 3 Xrotation Yrotation Zrotation
						JOINT LeftToe_End
						{
							OFFSET -1.784700 -0.561700 9.474800
							CHANNELS 3 Xrotation Yrotation Zrotation
							End Site
							{
								OFFSET 0 0 0
							}
						}
					}
				}
			}
		}
	}
	JOINT RightUpLeg_virtual
	{
		OFFSET 0.000000 0.000000 0.000000
		CHANNELS 3 Xrotation Yrotation Zrotation
		JOINT RightUpLeg
		{
			OFFSET -12.883000 -6.336304 -1.092800
			CHANNELS 3 Xrotation Yrotation Zrotation
			JOINT RightLeg
			{
				OFFSET -0.524587 -46.096825 9.782800
				CHANNELS 3 Xrotation Yrotation Zrotation
				JOINT RightFoot
				{
					OFFSET 0.524587 -53.427383 -12.948300
					CHANNELS 3 Xrotation Yrotation Zrotation
					JOINT RightToeBase
					{
						OFFSET -0.192200 -14.009700 16.364100
						CHANNELS 3 Xrotation Yrotation Zrotation
						JOINT RightToe_End
						{
							OFFSET 1.784700 -0.561700 9.474800
							CHANNELS 3 Xrotation Yrotation Zrotation
							End Site
							{
								OFFSET 0 0 0
							}
						}
					}
				}
			}
		}
	}
	JOINT Spine_virtual
	{
		OFFSET 0.000000 0.000000 0.000000
		CHANNELS 3 Xrotation Yrotation Zrotation
		JOINT Spine
		{
			OFFSET 0.072000 7.257294 -0.789700
			CHANNELS 3 Xrotation Yrotation Zrotation
			JOINT Spine1
			{
				OFFSET 0.000000 12.508769 -0.658067
				CHANNELS 3 Xrotation Yrotation Zrotation
				JOINT Spine1_split
				{
					OFFSET 0.000000 12.508769 -0.658067
					CHANNELS 3 Xrotation Yrotation Zrotation
					JOINT Spine2
					{
						OFFSET 0.000000 12.508769 -0.658067
						CHANNELS 3 Xrotation Yrotation Zrotation
						JOINT Neck_virtual
						{
							OFFSET 0.000000 0.000000 0.000000
							CHANNELS 3 Xrotation Yrotation Zrotation
							JOINT Neck
							{
								OFFSET 0.000000 14.033295 7.520400
								CHANNELS 3 Xrotation Yrotation Zrotation
								JOINT Head
								{
									OFFSET 0.000000 8.198502 5.703100
									CHANNELS 3 Xrotation Yrotation Zrotation
									JOINT HeadTop_End
									{
										OFFSET 0.000000 17.760803 13.332701
										CHANNELS 3 Xrotation Yrotation Zrotation
										End Site
										{
											OFFSET 0 0 0
										}
									}
								}
							}
						}
						JOINT LeftShoulder_virtual
						{
							OFFSET 0.000000 0.000000 0.000000
							CHANNELS 3 Xrotation Yrotation Zrotation
							JOINT LeftShoulder
							{
								OFFSET 6.292450 5.785301 -0.669000
								CHANNELS 3 Xrotation Yrotation Zrotation
								JOINT LeftShoulder_split
								{
									OFFSET 6.292450 5.785301 -0.669000
									CHANNELS 3 Xrotation Yrotation Zrotation
									JOINT LeftArm
									{
										OFFSET 13.907140 -6.093903 1.965100
										CHANNELS 3 Xrotation Yrotation Zrotation
										JOINT LeftForeArm
										{
											OFFSET 34.140198 0.000000 0.000000
											CHANNELS 3 Xrotation Yrotation Zrotation
											JOINT LeftHand
											{
												OFFSET 40.960209 0.000000 0.000000
												CHANNELS 3 Xrotation Yrotation Zrotation
												End Site
												{
													OFFSET 0 0 0
												}
											}
										}
									}
								}
							}
						}
						JOINT RightShoulder_virtual
						{
							OFFSET 0.000000 0.000000 0.000000
							CHANNELS 3 Xrotation Yrotation Zrotation
							JOINT RightShoulder
							{
								OFFSET -6.292450 5.785301 -0.669000
								CHANNELS 3 Xrotation Yrotation Zrotation
								JOINT RightShoulder_split
								{
									OFFSET -6.292450 5.785301 -0.669000
									CHANNELS 3 Xrotation Yrotation Zrotation
									JOINT RightArm
									{
										OFFSET -13.907140 -6.093903 1.965100
										CHANNELS 3 Xrotation Yrotation Zrotation
										JOINT RightForeArm
										{
											OFFSET -34.140198 0.000000 0.000000
											CHANNELS 3 Xrotation Yrotation Zrotation
											JOINT RightHand
											{
												OFFSET -40.960209 0.000000 0.000000
												CHANNELS 3 Xrotation Yrotation Zrotation
												End Site
												{
													OFFSET 0 0 0
												}
											}
										}
									}
								}
							}
						}
					}
				}
			}
		}
	}
}
MOTION
Frames: 4
Frame Time: 0.03333333
-1.916739 113.343796 -1.642540 0.000000 0.000000 0.000000 2.323610 6.174709 6.305329 -8.167527 4.952213 1.355231 14.733664 5.309413 -0.284099 -7.366804 0.979353 -6.686489 -0.171648 -0.012062 -1.133087 0.000000 0.000000 0.000000 2.864351 5.929788 6.296295 -12.987185 -9.760049 -16.203780 23.233244 0.412806 -0.293280 -10.532689 -8.439887 6.204631 -3.672513 0.072516 0.193894 0.000000 0.000000 0.000000 3.200579 5.660749 5.802608 8.029943 -0.964572 7.415478 2.238582 -0.165431 1.605698 0.828210 -0.529380 0.415495 0.000000 0.000000 0.000000 1.466487 -0.139471 1.252043 0.691132 0.615192 2.457919 -4.806781 -13.781689 -0.959741 0.000000 0.000000 0.000000 2.011744 -0.235345 1.373156 1.067479 -5.220814 -12.137264 0.427960 -0.013777 -1.484656 6.243774 -7.448895 -41.083096 0.019774 -68.656645 -0.006112 0.000000 0.000000 0.000000 2.061798 -0.055497 1.244941 1.260669 16.240549 13.604183 -1.328596 1.123330 0.518837 -27.492801 14.343539 60.707643 -139.920974 88.259991 139.428914 0.000000 0.000000 0.000000 
-1.919406 113.350525 -1.491848 0.000000 0.000000 0.000000 2.292582 5.860297 6.355774 -7.990370 4.979684 1.373158 14.725360 5.435967 -0.254928 -7.469442 0.917891 -6.762677 -0.139385 -0.011742 -1.135510 0.000000 0.000000 0.000000 2.841337 5.622295 6.345412 -12.698506 -9.203046 -16.095845 23.127140 0.020041 -0.302392 -10.681758 -8.495811 6.182734 -3.626804 0.070302 0.177093 0.000000 0.000000 0.000000 3.175360 5.579866 5.841252 7.971975 -1.290744 7.447508 2.206829 -0.199995 1.599350 0.839116 -0.620029 0.374227 0.000000 0.000000 0.000000 1.468590 -0.173320 1.233306 0.687597 0.798161 2.303445 -5.532819 -13.512874 -1.200568 0.000000 0.000000 0.000000 1.978461 -0.262370 1.388232 1.009369 -5.339111 -12.269894 0.550217 0.166507 -1.570662 6.546667 -7.748397 -41.022731 0.074850 -68.826184 -0.015416 0.000000 0.000000 0.000000 2.033546 -0.124598 1.241361 1.347408 16.722620 13.773136 -1.478830 1.305157 0.580818 -21.936910 16.938092 60.370553 -170.446715 83.977572 169.910313 0.000000 0.000000 0.000000 
-1.862341 113.373375 -1.369499 0.000000 0.000000 0.000000 2.227038 5.539990 6.381558 -7.791681 5.035017 1.390223 14.718552 5.601208 -0.248166 -7.584502 0.820533 -6.818052 -0.090376 -0.013853 -1.127734 0.000000 0.000000 0.000000 2.773670 5.300949 6.369681 -12.350278 -8.649735 -16.005966 22.980392 -0.373693 -0.305962 -10.790489 -8.559176 6.173115 -3.555605 0.067341 0.162635 0.000000 0.000000 0.000000 3.144419 5.435252 5.855732 7.917170 -1.645650 7.450620 2.167078 -0.277484 1.587914 0.861262 -0.669039 0.330390 0.000000 0.000000 0.000000 1.457736 -0.243090 1.222108 0.700011 0.983851 2.121863 -6.245597 -13.160650 -1.498322 0.000000 0.000000 0.000000 1.945587 -0.323303 1.404412 0.952540 -5.481891 -12.329543 0.653581 0.380717 -1.584377 6.947606 -8.189384 -40.928710 0.130976 -68.913720 -0.037840 0.000000 0.000000 0.000000 2.002605 -0.227318 1.243303 1.461134 17.280114 13.761411 -1.591483 1.410741 0.714283 -16.780890 20.552898 59.445827 -174.661297 80.594292 174.093162 0.000000 0.000000 0.000000 
-1.749821 113.415146 -1.262718 0.000000 0.000000 0.000000 2.118193 5.199969 6.379214 -7.555008 5.104811 1.407880 14.703674 5.812655 -0.257309 -7.718787 0.709840 -6.844197 -0.026209 -0.016410 -1.114007 0.000000 0.000000 0.000000 2.646446 4.952425 6.367574 -11.954599 -8.115953 -15.927989 22.817169 -0.743482 -0.303162 -10.833285 -8.621054 6.199995 -3.511592 0.063200 0.150546 0.000000 0.000000 0.000000 3.085751 5.190370 5.841982 7.861403 -2.001586 7.401278 2.122105 -0.380407 1.566241 0.876544 -0.691253 0.309978 0.000000 0.000000 0.000000 1.438679 -0.332410 1.207922 0.728268 1.155484 1.913914 -6.883648 -12.764888 -1.826424 0.000000 0.000000 0.000000 1.917013 -0.404791 1.416401 0.899165 -5.621531 -12.293087 0.732912 0.637616 -1.550277 7.388549 -8.751615 -40.828675 0.220514 -68.958560 -0.037867 0.000000 0.000000 0.000000 1.968792 -0.347908 1.241908 1.591840 17.969960 13.603016 -1.732738 1.527639 0.801370 -12.037194 25.122467 57.651291 -176.021297 78.492097 175.437766 0.000000 0.000000 0.000000 
